<?xml version="1.0" encoding="UTF-8"?>
<svg width="24px" height="24px" viewBox="0 0 24 24" version="1.1" xmlns="http://www.w3.org/2000/svg" xmlns:xlink="http://www.w3.org/1999/xlink">
    <!-- Generator: Sketch 55.2 (78181) - https://sketchapp.com -->
    <title>icon_yxjk</title>
    <desc>Created with Sketch.</desc>
    <g id="Page-1" stroke="none" stroke-width="1" fill="none" fill-rule="evenodd">
        <g id="应用支撑系统服务资源" transform="translate(-21.000000, -248.000000)" fill="#A7A9C0" fill-rule="nonzero">
            <g id="icon_yxjk" transform="translate(21.000000, 248.000000)">
                <g id="编组-8" transform="translate(0.000000, 2.000000)">
                    <path d="M21.0304591,14.3070057 C19.4086112,18.1018588 15.4012508,20.4760523 11.5714632,20.0074041 C6.98060295,19.3762018 3.68156756,16.0854757 2.9892423,11.4037137 C2.48676335,7.64560653 4.84696492,3.62543391 8.69545025,1.9684874 C9.20271683,1.75008625 9.43688854,1.16181633 9.2184874,0.654549748 C9.00008625,0.147283166 8.41181633,-0.0868885404 7.90454975,0.131512603 C3.24388514,2.13813893 0.383904006,7.00959483 1.00882383,11.6825511 C1.83269999,17.2545669 5.82423474,21.2360483 11.3138139,21.9906833 C16.051968,22.5705987 20.9017446,19.6973087 22.8695409,15.0929943 C23.0865857,14.5851458 22.8508427,13.9975038 22.3429943,13.7804591 C21.8351458,13.5634143 21.2475038,13.7991573 21.0304591,14.3070057 Z" id="Shape"></path>
                    <path d="M24,10.5 C24,7.4072834 22.757241,4.48138747 20.5298227,2.41662347 C18.5186125,0.242759018 15.5927166,-1 12.5,-1 C11.9477153,-1 11.5,-0.55228475 11.5,0 L11.5,10.5 C11.5,11.0522847 11.9477153,11.5 12.5,11.5 L23,11.5 C23.5522847,11.5 24,11.0522847 24,10.5 Z M13.5,9.5 L13.5,1.05283741 C15.6635344,1.28279004 17.6577719,2.25604827 19.1166235,3.82982267 C20.7368984,5.33517256 21.7163102,7.33560486 21.9470518,9.5 L13.5,9.5 Z" id="Shape"></path>
                </g>
            </g>
        </g>
    </g>
</svg>