<?xml version="1.0" encoding="UTF-8"?>
<svg width="24px" height="24px" viewBox="0 0 24 24" version="1.1" xmlns="http://www.w3.org/2000/svg" xmlns:xlink="http://www.w3.org/1999/xlink">
    <!-- Generator: Sketch 55.2 (78181) - https://sketchapp.com -->
    <title>icon_fwzy</title>
    <desc>Created with Sketch.</desc>
    <g id="Page-1" stroke="none" stroke-width="1" fill="none" fill-rule="evenodd">
        <g id="应用支撑系统服务资源" transform="translate(-19.000000, -106.000000)" fill="#0B9284">
            <g id="icon_fwzy" transform="translate(19.000000, 106.000000)">
                <path d="M18.652898,20 L5.51069388,20 L4.01240816,13.5 L20.1511837,13.5 L18.652898,20 Z M2.28587755,11.5 L21.8777143,11.5 L21.8777143,9 L2.28587755,9 L2.28587755,11.5 Z M22.8573061,7 L21.2145306,7 L15.1038367,2.5 C14.6649796,2.18 14.0522449,2.28 13.7363265,2.73 C13.4199184,3.175 13.5188571,3.8 13.9577143,4.125 L17.8653061,7 L6.29828571,7 L10.2058776,4.125 C10.6447347,3.8 10.7436735,3.175 10.4272653,2.73 C10.1113469,2.28 9.49910204,2.18 9.0597551,2.5 L2.94906122,7 L1.30628571,7 C0.76555102,7 0.326693878,7.45 0.326693878,8 L0.326693878,12.5 C0.326693878,13.055 0.76555102,13.5 1.30628571,13.5 L1.99983673,13.5 L3.78122449,21.23 C3.88555102,21.68 4.28032653,22 4.73485714,22 L19.4287347,22 C19.8832653,22 20.2780408,21.68 20.3823673,21.23 L22.1637551,13.5 L22.8573061,13.5 C23.3980408,13.5 23.836898,13.055 23.836898,12.5 L23.836898,8 C23.836898,7.45 23.3980408,7 22.8573061,7 L22.8573061,7 Z" id="Fill-237"></path>
                <path d="M10.6124082,18.75 C11.018449,18.75 11.347102,18.415 11.347102,18 L11.347102,15.5 C11.347102,15.085 11.018449,14.75 10.6124082,14.75 C10.2063673,14.75 9.87771429,15.085 9.87771429,15.5 L9.87771429,18 C9.87771429,18.415 10.2063673,18.75 10.6124082,18.75" id="Fill-238"></path>
                <path d="M13.5511837,18.75 C13.9572245,18.75 14.2858776,18.415 14.2858776,18 L14.2858776,15.5 C14.2858776,15.085 13.9572245,14.75 13.5511837,14.75 C13.1451429,14.75 12.8164898,15.085 12.8164898,15.5 L12.8164898,18 C12.8164898,18.415 13.1451429,18.75 13.5511837,18.75" id="Fill-239"></path>
                <path d="M16.4899592,18.75 C16.896,18.75 17.2246531,18.415 17.2246531,18 L17.2246531,15.5 C17.2246531,15.085 16.896,14.75 16.4899592,14.75 C16.0839184,14.75 15.7552653,15.085 15.7552653,15.5 L15.7552653,18 C15.7552653,18.415 16.0839184,18.75 16.4899592,18.75" id="Fill-240"></path>
                <path d="M7.67363265,18.75 C8.07967347,18.75 8.40832653,18.415 8.40832653,18 L8.40832653,15.5 C8.40832653,15.085 8.07967347,14.75 7.67363265,14.75 C7.26759184,14.75 6.93893878,15.085 6.93893878,15.5 L6.93893878,18 C6.93893878,18.415 7.26759184,18.75 7.67363265,18.75" id="Fill-241"></path>
            </g>
        </g>
    </g>
</svg>