<?xml version="1.0" encoding="UTF-8"?>
<svg width="24px" height="24px" viewBox="0 0 24 24" version="1.1" xmlns="http://www.w3.org/2000/svg" xmlns:xlink="http://www.w3.org/1999/xlink">
    <!-- Generator: Sketch 55.2 (78181) - https://sketchapp.com -->
    <title>icon_rzfx</title>
    <desc>Created with Sketch.</desc>
    <g id="Page-1" stroke="none" stroke-width="1" fill="none" fill-rule="evenodd">
        <g id="应用支撑系统服务资源" transform="translate(-24.000000, -317.000000)" fill="#A7A9C0" fill-rule="nonzero">
            <g id="icon_rzfx" transform="translate(24.000000, 317.000000)">
                <path d="M21,8 L21,4.22222222 C21,3.66993747 20.5522847,3.22222222 20,3.22222222 L17.4444444,3.22222222 L17.4444444,5 C17.4444444,5.55228475 16.9967292,6 16.4444444,6 C15.8921597,6 15.4444444,5.55228475 15.4444444,5 L15.4444444,3.22222222 L8.55555556,3.22222222 L8.55555556,5 C8.55555556,5.55228475 8.10784031,6 7.55555556,6 C7.00327081,6 6.55555556,5.55228475 6.55555556,5 L6.55555556,3.22222222 L4,3.22222222 C3.44771525,3.22222222 3,3.66993747 3,4.22222222 L3,8 L21,8 Z M21,10 L3,10 L3,20.2222222 C3,20.774507 3.44771525,21.2222222 4,21.2222222 L20,21.2222222 C20.5522847,21.2222222 21,20.774507 21,20.2222222 L21,10 Z M8.55555556,1.22222222 L15.4444444,1.22222222 L15.4444444,1 C15.4444444,0.44771525 15.8921597,0 16.4444444,0 C16.9967292,0 17.4444444,0.44771525 17.4444444,1 L17.4444444,1.22222222 L20,1.22222222 C21.6568542,1.22222222 23,2.56536797 23,4.22222222 L23,20.2222222 C23,21.8790765 21.6568542,23.2222222 20,23.2222222 L4,23.2222222 C2.34314575,23.2222222 1,21.8790765 1,20.2222222 L1,4.22222222 C1,2.56536797 2.34314575,1.22222222 4,1.22222222 L6.55555556,1.22222222 L6.55555556,1 C6.55555556,0.44771525 7.00327081,0 7.55555556,0 C8.10784031,0 8.55555556,0.44771525 8.55555556,1 L8.55555556,1.22222222 Z" id="形状结合"></path>
            </g>
        </g>
    </g>
</svg>