<?xml version="1.0" encoding="UTF-8"?>
<svg width="34px" height="34px" viewBox="0 0 34 34" version="1.1" xmlns="http://www.w3.org/2000/svg" xmlns:xlink="http://www.w3.org/1999/xlink">
    <!-- Generator: Sketch 55.2 (78181) - https://sketchapp.com -->
    <title>icon_quanbu</title>
    <desc>Created with Sketch.</desc>
    <g id="Page-1" stroke="none" stroke-width="1" fill="none" fill-rule="evenodd">
        <g id="应用支撑系统服务资源" transform="translate(-1095.000000, -356.000000)" fill="#C9C9C9" fill-rule="nonzero">
            <g id="icon_quanbu" transform="translate(1095.000000, 356.000000)">
                <path d="M14.3032905,13.7467422 C14.3032905,14.0806711 14.0806711,14.3032905 13.7467422,14.3032905 L0.556548267,14.3032905 C0.278274133,14.3032905 5.96855898e-13,14.0806711 5.96855898e-13,13.7467422 L5.96855898e-13,0.556548267 C5.96855898e-13,0.278274133 0.278274133,-6.60804744e-13 0.556548267,-6.60804744e-13 L13.7467422,-6.60804744e-13 C14.0806711,-6.60804744e-13 14.3032905,0.278274133 14.3032905,0.556548267 L14.3032905,13.7467422 Z M33.392896,13.7467422 C33.392896,14.0806711 33.1146219,14.3032905 32.8363477,14.3032905 L19.6461538,14.3032905 C19.3678797,14.3032905 19.0896055,14.0806711 19.0896055,13.7467422 L19.0896055,0.556548267 C19.0896055,0.278274133 19.3678797,-6.60804744e-13 19.6461538,-6.60804744e-13 L32.8363477,-6.60804744e-13 C33.1146219,-6.60804744e-13 33.392896,0.278274133 33.392896,0.556548267 L33.392896,13.7467422 Z M14.3032905,32.8363477 C14.3032905,33.1146219 14.0806711,33.392896 13.7467422,33.392896 L0.556548267,33.392896 C0.278274133,33.392896 5.96855898e-13,33.1146219 5.96855898e-13,32.8363477 L5.96855898e-13,19.6461538 C5.96855898e-13,19.3678797 0.278274133,19.0896055 0.556548267,19.0896055 L13.7467422,19.0896055 C14.0806711,19.0896055 14.3032905,19.3678797 14.3032905,19.6461538 L14.3032905,32.8363477 Z M33.392896,32.8363477 C33.392896,33.1146219 33.1146219,33.392896 32.8363477,33.392896 L19.6461538,33.392896 C19.3678797,33.392896 19.0896055,33.1146219 19.0896055,32.8363477 L19.0896055,19.6461538 C19.0896055,19.3678797 19.3678797,19.0896055 19.6461538,19.0896055 L32.8363477,19.0896055 C33.1146219,19.0896055 33.392896,19.3678797 33.392896,19.6461538 L33.392896,32.8363477 Z" id="形状结合"></path>
            </g>
        </g>
    </g>
</svg>