<svg height="75" width="105" xmlns="http://www.w3.org/2000/svg"><g fill="none"><path d="m-8-24h120v120h-120z"/><g fill="#2f63f6"><g opacity=".199"><path d="m84.494 29.358 7.052-3.527 8.274 4.194-7.146 3.717zm4.944-14.832 7.052-3.526 8.274 4.193-7.146 3.717zm-89.438.45 7.052-3.527 8.274 4.194-7.146 3.717zm4.944 49.438 7.052-3.526 8.274 4.193-7.146 3.717-8.18-4.384z"/><path d="m5.438 59.964 7.052-3.526 8.274 4.193-7.146 3.717z"/></g><g opacity=".189"><path d="m4 44.854 44.3-21.854 51.98 25.99-44.892 23.035z"/><path d="m4 47.816 44.3-21.854 51.98 25.989-44.892 23.036z"/></g><path d="m52.085 46.375a29.034 29.034 0 0 1 2.903-1.94l12.632-7.34a29.127 29.127 0 0 0 -2.904 1.94l-3.801 2.865-12.632 7.34 3.802-2.866"/></g><path d="m35.118 7.777a8.4 8.4 0 0 0 -.685-.206c-.158-.04-.313-.07-.468-.1-.116-.022-.233-.05-.347-.066-.104-.015-.206-.02-.308-.03-.144-.014-.289-.029-.43-.033-.086-.003-.171 0-.257.002a5.047 5.047 0 0 0 -.669.048c-.142.019-.28.043-.416.074-.071.015-.142.03-.212.048a4.929 4.929 0 0 0 -.453.147l-.134.047c-.197.08-.389.174-.571.28l12.63-7.342.054-.03c.157-.09.32-.168.487-.238l.031-.012.135-.047c.114-.043.227-.087.345-.122l.107-.024c.07-.02.142-.034.213-.05.074-.016.145-.037.221-.05l.194-.023c.08-.01.16-.02.24-.028l.147-.018c.092-.005.188 0 .282-.002.086-.001.17-.005.258-.002h.094c.11.004.224.022.335.033.103.01.204.016.308.03l.07.007c.09.014.185.042.278.06.155.03.309.058.467.1l.088.018c.197.054.397.117.597.188l.12.045c.13.048.262.094.395.15a12.416 12.416 0 0 1 2.16 1.178c.087.058.172.122.258.182.174.123.348.247.519.378.1.077.198.159.298.238.154.124.308.25.46.38.102.09.203.181.304.273.145.131.289.264.43.401l.146.137.106.112c.315.315.623.64.921.981l.02.021.108.134c.197.229.39.464.578.703l.088.107c.058.075.112.153.168.228.12.157.237.315.352.477l.118.16c.051.073.1.15.15.223.096.14.191.282.285.425l.123.185c.05.077.095.156.143.234.082.13.162.262.241.395l.114.186c.05.087.098.176.147.264.07.125.141.25.21.377l.093.168c.054.1.103.203.156.305.063.124.127.248.188.372l.071.14c.055.115.105.231.159.347.058.125.116.25.172.376l.05.11c.054.126.103.253.155.379.054.13.11.26.16.392l.037.09c.048.123.089.247.134.37.053.15.11.298.16.448l.03.086c.083.246.16.493.232.739l-12.632 7.341c-.08-.276-.169-.551-.261-.826-.051-.15-.107-.298-.161-.447-.056-.154-.11-.307-.17-.46-.051-.131-.106-.262-.16-.393-.068-.163-.135-.326-.206-.488-.055-.126-.114-.25-.172-.376-.075-.163-.15-.326-.23-.487-.06-.125-.125-.249-.188-.373a24.386 24.386 0 0 0 -.459-.85 21.266 21.266 0 0 0 -.768-1.263 21.722 21.722 0 0 0 -.904-1.285 21.156 21.156 0 0 0 -.833-1.038l-.13-.155a20.82 20.82 0 0 0 -.92-.981c-.084-.084-.167-.168-.252-.25-.142-.136-.286-.269-.43-.4-.101-.091-.203-.184-.306-.273a16.228 16.228 0 0 0 -.46-.38c-.098-.08-.196-.162-.296-.238a14.842 14.842 0 0 0 -.521-.379c-.086-.06-.17-.124-.255-.18a12.52 12.52 0 0 0 -1.81-1.025 9.985 9.985 0 0 0 -.748-.305l-.118-.045" fill="#8ca9f9"/><path d="m27.399 13.163c.415-4.976 4.058-7.118 8.584-5.037.342.158.68.334 1.016.527 4.023 2.323 7.46 7.158 8.877 12.021 1.438-3.214 4.89-4.072 8.916-1.748.336.193.675.41 1.017.648 4.522 3.142 8.142 9.476 8.524 14.912.3 4.239-1.312 6.965-3.911 7.66-3.086.821-5.833 2.338-8.337 4.229l-3.802 2.867c-.657.495-1.573.402-2.489-.126-.916-.529-1.83-1.494-2.482-2.743l-3.773-7.24c-2.485-4.772-5.214-9.451-8.285-13.828-2.588-3.689-4.18-8.265-3.855-12.142" fill="#527fff"/><path d="m53.683 18.365a9.967 9.967 0 0 0 -.829-.332l-.038-.012a8.34 8.34 0 0 0 -1.106-.283 7.609 7.609 0 0 0 -.506-.078c-.097-.011-.193-.022-.289-.028a6.028 6.028 0 0 0 -.613-.013l-.141.002a5.334 5.334 0 0 0 -.709.089l-.169.038c-.18.041-.356.092-.528.153l-.161.057a4.633 4.633 0 0 0 -.63.299l12.632-7.34.052-.03c.156-.088.317-.167.483-.237l.094-.033.162-.057c.083-.03.165-.063.25-.088.09-.026.185-.043.278-.064l.17-.039.09-.02c.189-.033.382-.057.579-.069h.038l.141-.001c.15-.005.299-.011.453-.004l.161.016c.095.006.192.017.289.028.088.01.174.013.264.027.08.012.162.036.242.051.13.025.262.052.395.085.07.016.138.025.209.044.165.045.332.098.501.154l.039.012c.192.066.387.139.584.22.08.034.163.075.244.112a12.693 12.693 0 0 1 1.11.561c.336.194.674.41 1.017.647.34.237.674.497 1.003.77.099.08.195.164.292.248.24.208.479.424.713.65l.176.16.096.103c.319.319.631.648.933.994l.02.022c.075.086.145.178.218.265.17.201.339.402.502.61l.047.059c.12.155.234.316.35.474.087.118.177.234.262.355l.032.043c.193.275.38.554.562.838l.007.013.066.107c.146.231.29.464.428.7l.059.105c.055.097.108.196.163.294.078.14.158.278.234.42.039.073.075.149.114.223l.166.33c.045.09.094.179.137.27.06.123.113.248.17.372.05.106.1.212.147.32l.067.146c.087.201.167.404.248.606.029.072.06.144.088.216l.017.042c.116.301.225.603.325.905l.011.037c.036.107.065.213.099.32.064.206.131.412.188.617l.018.073c.058.212.105.422.155.633.032.131.07.262.097.393l.008.046c.085.402.153.802.206 1.199l.013.074c.037.289.066.577.086.861.254 3.576-.853 6.074-2.765 7.186l-12.632 7.34c1.913-1.111 3.02-3.61 2.766-7.185a16.923 16.923 0 0 0 -.305-2.134c-.03-.146-.07-.293-.105-.44-.05-.21-.098-.42-.155-.631-.064-.232-.136-.463-.208-.695-.033-.105-.062-.21-.097-.315a20.81 20.81 0 0 0 -.353-.985c-.028-.073-.06-.144-.089-.217-.1-.251-.204-.502-.314-.751l-.147-.321a20.776 20.776 0 0 0 -.474-.971 25.152 25.152 0 0 0 -.348-.645c-.055-.097-.107-.195-.163-.29-.157-.273-.32-.542-.486-.807l-.066-.107a22.923 22.923 0 0 0 -.601-.894c-.086-.122-.176-.238-.264-.357-.13-.179-.26-.358-.396-.53-.163-.21-.334-.412-.503-.614-.08-.094-.156-.192-.236-.284a20.007 20.007 0 0 0 -.933-.995c-.09-.09-.181-.175-.272-.263a17.602 17.602 0 0 0 -.715-.65c-.096-.083-.192-.168-.29-.248-.33-.271-.663-.532-1.004-.768a14.09 14.09 0 0 0 -1.017-.648 11.763 11.763 0 0 0 -1.11-.561m-17.278 8.685 2.09 1.068.153.078.088.232 1.052 2.806c.15.398.296.796.444 1.194.145-.644.29-1.286.445-1.92l.742-3.113.381-1.543.388-1.54c.261-1.025.51-2.06.78-3.076l.736-2.788.746 3.647.85 4.14c.278 1.382.561 2.763.827 4.138l.809 4.131c.05.251.1.505.148.757.185-.604.368-1.21.56-1.805l.689-2.153c.229-.718.456-1.439.697-2.146l.528-1.55 1.089 5.035c.196.893.378 1.784.564 2.675.784.496 1.564.994 2.345 1.5.863.555 1.724 1.122 2.586 1.696a195.57 195.57 0 0 1 -2.587-1.292c-.863-.438-1.725-.88-2.587-1.335l-.213-.109-.087-.311c-.275-.995-.559-1.992-.824-2.983l-.223-.819-.16.65-.566 2.265c-.184.758-.384 1.502-.58 2.249l-.588 2.245-.685 2.598-.736-3.43c-.3-1.385-.583-2.766-.864-4.146l-.844-4.141c-.286-1.383-.553-2.757-.826-4.136l-.11-.561-.086.284-.436 1.496-.442 1.493-.91 2.96c-.3.99-.619 1.963-.933 2.942l-.376 1.17-.49-1.575c-.29-.931-.591-1.869-.876-2.803l-.799-2.608-1.91-1.23c-.695-.45-1.392-.907-2.09-1.373.699.34 1.396.684 2.09 1.037" fill="#8ca9f9"/><path d="m63.933 58.74 4.852-2.82.023-8.206-4.852 2.82z" fill="#ffa125"/><path d="m56.892 38.299 4.852-2.82-7.141-4.123-4.852 2.82z" fill="#ffcf42"/><path d="m71.098 54.657 4.852-2.82.023-8.143-4.853 2.82z" fill="#ffa125"/><path d="m71.12 46.514 4.853-2.82-7.142-4.123-4.852 2.82zm-7.118-12.33 4.853-2.82-7.088-4.091-4.852 2.82z" fill="#ffcf42"/><path d="m63.979 42.39 4.852-2.82.024-8.206-4.853 2.82-.023 8.207" fill="#ffa125"/><path d="m56.915 30.093-.023 8.206-7.141-4.124-.024 8.144 7.142 4.123-.023 8.207 7.087 4.091.023-8.206 7.142 4.123.022-8.143-7.141-4.123.023-8.207z" fill="#f8b911"/></g></svg>
