<svg width="87" height="62" xmlns="http://www.w3.org/2000/svg"><g fill="none" fill-rule="evenodd"><path d="M-1-21h90v90H-1z"/><path fill="#2F63F6" fill-rule="nonzero" opacity=".201" d="M3.944 28.022l5.12-2.526 6.008 3.003-5.189 2.663z"/><path fill="#2F63F6" fill-rule="nonzero" opacity=".505" d="M.388 34.892l3.137-1.548 3.68 1.84-3.179 1.631z"/><g opacity=".189" fill="#2F63F6" fill-rule="nonzero"><path d="M9.622 37.724l35.38-17.454 41.513 20.757-35.851 18.398z"/><path d="M9.622 40.09l35.38-17.454 41.513 20.756L50.663 61.79z"/></g><path fill="#2F63F6" fill-rule="nonzero" opacity=".33" d="M70.606 30.172l5.12-2.526 6.009 3.004-5.19 2.663z"/><path d="M66.306 23.821l3.45-1.703 4.05 2.025-3.497 1.794-4.003-2.116zm7.5-7.457l3.452-1.702 4.05 2.025-3.499 1.794-4.003-2.117z" fill="#2F63F6" fill-rule="nonzero" opacity=".149"/><path fill="#2F63F6" fill-rule="nonzero" opacity=".201" d="M.388 19.198l6.414-3.164 7.525 3.762-6.5 3.335z"/><g fill-rule="nonzero"><path d="M34.588 41.935c7.316 4.241 19.19 4.241 26.506 0 7.316-4.24 7.316-11.08 0-15.32-7.316-4.241-19.19-4.241-26.506 0-7.316 4.24-7.316 11.08 0 15.32zm7.157-11.185c3.34-1.962 8.8-1.962 12.192 0 3.34 1.961 3.34 5.089 0 7.05-3.34 1.962-8.8 1.962-12.192 0-3.34-1.908-3.34-5.089 0-7.05z" fill="#2F63F6" opacity=".3"/><path d="M63.904 19.933l-6.68.106c-.477-.637-1.22-1.273-2.12-1.75-3.658-2.12-9.437-2.28-13.465-.477l-3.976-3.71-6.097.105c.318-.212.636-.37.954-.583 8.482-4.93 22.266-4.93 30.8 0 1.538.901 2.863 1.909 3.817 2.969l-3.233 3.34z" fill="#FFA125"/><path fill="#F8B911" d="M31.513 4.4v9.754l6.15-.106V4.347z"/><path fill="#FFA125" d="M41.639 8.058v9.701l-3.976-3.71V4.346z"/><path d="M57.171 10.337v9.702l-8.8-7.157-6.785 4.877V8.058l6.255-3.022s8.588 2.65 9.065 2.757c.424.106.265 2.544.265 2.544z" fill="#FFA125"/><path fill="#FFA125" d="M63.904 10.231v9.702l-6.733.106v-9.702z"/><path fill="#F8B911" d="M67.084 6.839v9.7l-3.18 3.394V10.23z"/><path d="M63.904 10.231l-6.68.106c-.477-.636-1.22-1.272-2.12-1.749-3.658-2.12-9.437-2.28-13.465-.477L37.663 4.4l-6.097.106c.318-.212.636-.371.954-.583 8.482-4.93 22.266-4.93 30.8 0 1.538.901 2.863 1.908 3.817 2.969l-3.233 3.34z" fill="#FFCF42"/><g><path d="M39.624 9.277v8.906l-5.778-1.378s.318-5.248.477-5.354c.053-.16 5.301-2.174 5.301-2.174zM43.971 18.183v9.701l-.636.69-4.082-2.333s.636-7.422.69-7.58c.105-.16 4.028-.478 4.028-.478z" fill="#2F63F6"/><path d="M36.125 15.692l3.5 3.286c-2.917 2.333-2.545 5.567 1.06 7.634a11.49 11.49 0 0 0 3.34 1.272l-3.606 3.87 3.181 3.022c-4.082-.477-7.952-1.59-11.133-3.446-7.315-4.24-8.322-10.708-3.074-15.532l6.732-.106z" fill="#527FFF"/><path fill="#527FFF" d="M43.547 25.075v9.7l-7.899-3.074-9.542-9.118V12.3l10.125 8.005z"/><path d="M36.125 5.99l3.5 3.287c-2.917 2.333-2.545 5.566 1.06 7.634a11.49 11.49 0 0 0 3.34 1.272l-3.606 3.87 3.181 3.022c-4.082-.477-7.952-1.59-11.133-3.446-7.315-4.241-8.322-10.709-3.074-15.533l6.732-.106z" fill="#8CA9F9"/></g><g><path d="M43.6 31.701l3.18-3.393c2.97.16 6.044-.37 8.324-1.696 2.332-1.378 3.286-3.18 2.915-4.983l7.581-.106 2.916-3.128c2.544 4.4.795 9.436-5.249 12.882-4.453 2.545-10.337 3.764-16.168 3.658L43.6 31.7z" fill="#527FFF"/><path fill="#527FFF" d="M47.099 25.287v9.701l22.53-12.458V12.83l-3.287 1.325z"/><path fill="#2F63F6" d="M43.6 22v9.701l3.499 3.287v-9.701z"/><path d="M43.6 22l3.18-3.393c2.97.16 6.044-.37 8.324-1.696 2.332-1.378 3.286-3.18 2.915-4.983l7.581-.106 2.916-3.128c2.544 4.4.795 9.436-5.249 12.882C58.814 24.12 52.93 25.34 47.1 25.234L43.6 22z" fill="#8CA9F9"/></g></g></g></svg>
